# xmcd
#
# Track frame offsets:
# 150
# 19268
# 39862
# 52796
# 71089
# 86684
# 98337
# 115304
# 138189
# 157541
# 176911
# 191953
# 211603
#
# Disc length: 3118 seconds
#
#
# Revision: 0
# Processed by: cddbd v1.5PL3 Copyright (c) Steve Scherf et al.
# Submitted via: FreeRIP 2.51 
#
DISCID=9e0c2c0d
DTITLE=Alan Andrews - Cleaned And Pressed
DYEAR=2000
DGENRE=Country
TTITLE0=Common People
TTITLE1=In The Meantime
TTITLE2=Highway 61 Re-visited
TTITLE3=Necessary
TTITLE4=Blushing Bride
TTITLE5=Etch-a-sketch
TTITLE6=Once Upon A Time In Westchester
TTITLE7=Zeitgeist
TTITLE8=Build A Fire
TTITLE9=Cleaned And Pressed
TTITLE10=They Go Giddy
TTITLE11=The Other Half
TTITLE12=Jesus Christ What An Undiscoverd Life For Such A Robust Man Of The World
EXTD=
EXTT0=
EXTT1=
EXTT2=
EXTT3=
EXTT4=
EXTT5=
EXTT6=
EXTT7=
EXTT8=
EXTT9=
EXTT10=
EXTT11=
EXTT12=
PLAYORDER=
